<?xml version="1.0" encoding="UTF-8"?>
<svg version="1.1" xmlns="http://www.w3.org/2000/svg" width="5000" height="5000">
<path d="M0 0 C1650 0 3300 0 5000 0 C5000 1650 5000 3300 5000 5000 C3350 5000 1700 5000 0 5000 C0 3350 0 1700 0 0 Z " fill="#000000" transform="translate(0,0)"/>
<path d="M0 0 C6.14317679 5.08251095 11.75815694 10.61877397 17.38484091 16.26064241 C18.4346053 17.30954027 19.48458893 18.35821874 20.53477045 19.40669897 C23.42462744 22.29314582 26.31136066 25.1826992 29.19760014 28.07276269 C32.34810161 31.22632855 35.50151376 34.37698165 38.65455356 37.52800924 C44.20306247 43.07378177 49.74970297 48.62141759 55.29514246 54.17025928 C63.59679865 62.47698871 71.90133955 70.78082977 80.20645259 79.08410284 C94.35949331 93.23417573 108.51016054 107.38662006 122.65954971 121.54034424 C137.00236073 135.88753018 151.34625966 150.23362714 165.6914959 164.57838821 C166.59684895 165.48371257 167.502202 166.38903693 168.43498999 167.32179536 C173.05122302 171.93787202 177.66747384 176.5539309 182.28373095 181.16998348 C191.74869987 190.6345537 201.21350228 200.09929043 210.67823231 209.56409955 C211.15452774 210.04039873 211.63082317 210.51669791 212.1215518 211.00743039 C235.60594605 234.49203886 259.08846308 257.97852417 282.57085991 281.46512985 C290.8380666 289.73381572 299.10528221 298.00249268 307.3725307 306.27113676 C307.88644663 306.78513946 308.40036257 307.29914216 308.92985171 307.82872071 C332.73440292 331.63726909 356.54023687 355.44453471 380.34639964 379.25147168 C381.90328038 380.80840317 383.46016051 382.36533527 385.01704049 383.92226753 C394.40502359 393.31056472 403.79302006 402.69884856 413.18103195 412.08711696 C436.51978007 435.42650393 459.85836787 458.76605119 483.19684696 482.10570717 C483.72816359 482.63705043 484.25948022 483.16839369 484.80689735 483.71583827 C519.21976882 518.13043734 553.63198025 552.5456963 588.04363918 586.9615078 C588.59305792 587.51099282 589.14247665 588.06047784 589.70854443 588.62661392 C606.43330484 605.35339502 623.15801639 622.08022496 639.8827184 638.80706445 C658.39068709 657.31739812 676.89866412 675.82772346 695.40667725 694.3380127 C695.96321947 694.89462342 696.51976169 695.45123414 697.09316882 696.02471185 C749.95169842 748.88974179 802.81157285 801.75342693 855.67179512 854.61676435 C857.91075825 856.85585963 860.149721 859.0949553 862.38868374 861.33405099 C882.99209476 881.93868541 903.59552157 902.54330405 924.1989682 923.14790287 C925.02076424 923.96974487 925.02076424 923.96974487 925.85916222 924.80818974 C927.51794715 926.46706743 929.17673208 928.12594511 930.83551702 929.7848228 C975.64846822 974.60027985 1020.46128174 1019.41587458 1065.27400608 1064.23155849 C1066.8551367 1065.81279348 1068.43626744 1067.39402836 1070.01739821 1068.9752632 C1121.37155421 1120.33280048 1172.72546223 1171.69058569 1354.88452148 1353.86865234 C1355.77374128 1354.75797208 1356.66296108 1355.64729181 1357.57912694 1356.56356063 C1402.05284539 1401.04227966 1446.5264771 1445.52108544 1491 1490 C1492.12197167 1489.04339108 1493.24322531 1488.08593996 1494.36417538 1487.12813413 C1495.30088796 1486.32849898 1495.30088796 1486.32849898 1496.25652403 1485.51270958 C1498.25840599 1483.77579661 1500.15819126 1481.96487913 1502.03074646 1480.08950806 C1503.10536385 1479.01695267 1503.10536385 1479.01695267 1504.20169067 1477.92272949 C1504.96198578 1477.15883911 1505.72228088 1476.39494873 1506.50561523 1475.60791016 C1507.32593735 1474.78773407 1508.14625946 1473.96755798 1508.99143982 1473.12252808 C1511.6828703 1470.43040493 1514.37074847 1467.73476475 1517.05859375 1465.0390625 C1518.93167153 1463.16411824 1520.80494556 1461.28937215 1522.67848206 1459.41488647 C1527.09309132 1454.99718043 1531.50514725 1450.57693357 1535.91627127 1446.15574777 C1540.94215801 1441.11864834 1545.97091548 1436.08441902 1550.99990547 1431.05041814 C1561.33644733 1420.70344935 1571.66941416 1410.35291534 1582 1400 C1580.64651498 1396.98100997 1579.13601773 1394.88635168 1576.80065715 1392.55226016 C1576.1359133 1391.88302173 1575.47116946 1391.2137833 1574.78628186 1390.52426491 C1574.05202139 1389.79525847 1573.31776093 1389.06625204 1572.56125015 1388.31515449 C1571.38933018 1387.13977296 1571.38933018 1387.13977296 1570.19373507 1385.94064635 C1567.54747863 1383.28905549 1564.89408868 1380.64471746 1562.24073696 1378.00022793 C1560.32494941 1376.08468221 1558.41067477 1374.1676271 1556.49632797 1372.25064167 C1552.30619788 1368.05635127 1548.1123384 1363.86581856 1543.91607427 1359.67766546 C1537.63401948 1353.40771085 1531.35774514 1347.13199354 1525.08261716 1340.85510734 C1514.38911888 1330.15894446 1503.69089211 1319.46752236 1492.99012566 1308.77863121 C1482.14093093 1297.94143289 1471.2939229 1287.10205288 1460.44960403 1276.25997543 C1459.76548741 1275.57600239 1459.08137079 1274.89202934 1458.37652336 1274.18732984 C1454.8883888 1270.69990501 1451.40029208 1267.21244235 1447.91221041 1263.72496463 C1423.41813867 1239.23525617 1398.91980562 1214.74981463 1374.41894019 1190.2669031 C1348.59662598 1164.46350963 1322.77669458 1138.65773579 1296.96029854 1112.8484211 C1296.18299992 1112.07133679 1295.4057013 1111.29425248 1294.60484817 1110.49362016 C1285.91984412 1101.81099815 1277.23491911 1093.12829708 1268.55002648 1084.44556362 C1252.48522438 1068.38476107 1236.42008991 1052.32429096 1220.35487461 1036.26390171 C1219.55100507 1035.46027273 1218.74713553 1034.65664375 1217.9189063 1033.82866238 C1179.64354059 995.56478369 1141.36514659 957.30393496 1103.08605534 919.04378334 C1100.54551184 916.50449653 1098.00496986 913.9652082 1095.46442821 911.42591953 C1069.10382578 885.07832472 1042.74304184 858.7309115 1016.38222706 832.38352913 C990.88984441 806.90413578 965.39751134 781.42469281 939.90533303 755.94509502 C937.36710794 753.40812324 934.82888133 750.87115297 932.29065457 748.33418286 C894.05978316 710.12221812 855.82981532 671.90934995 817.60267735 633.69365025 C816.79929991 632.89051412 815.99592247 632.08737799 815.16820027 631.2599044 C799.11740125 615.2139181 783.06673421 599.16779977 767.01634705 583.1214015 C758.33642622 574.44363982 749.65644924 565.76593431 740.97641182 557.08828926 C740.19984165 556.31193203 739.42327148 555.53557479 738.62316888 554.73569158 C712.82289704 528.94256687 687.01862789 503.15344506 661.21246892 477.36621058 C636.77701346 452.94863574 612.34461715 428.5280039 587.91598858 404.10359899 C584.43409348 400.62231002 580.95216033 397.14105913 577.4702034 393.659832 C576.78763724 392.97740673 576.10507107 392.29498146 575.40182109 391.59187663 C564.58903119 380.78150995 553.77285999 369.97453291 542.95527022 359.16896953 C532.32104855 348.54643656 521.69037764 337.92036118 511.06348288 327.29049817 C504.83154429 321.05703737 498.5968674 314.82634588 492.35811333 308.59970618 C488.2143443 304.46343875 484.07422073 300.3235462 479.93703311 296.18069595 C477.59208293 293.83274064 475.24509184 291.48693298 472.89467579 289.14444229 C455.2890412 271.59478394 455.2890412 271.59478394 448 262 C447.02260979 260.7587409 446.04484662 259.51777521 445.06640625 258.27734375 C438.05416087 249.03269493 432.3131381 239.30462357 427 229 C426.67016113 228.36626465 426.34032227 227.7325293 426.00048828 227.07958984 C402.66087203 181.65701205 399.63866171 126.34860679 415 78 C424.96431916 48.37829342 441.69561158 22.64457772 463 0 C468.92575589 4.91569181 474.36040676 10.22106074 479.79493421 15.67073572 C480.78016605 16.65510087 481.76561711 17.63924664 482.75126584 18.62319435 C485.46163783 21.33015849 488.16888853 24.04022551 490.87564334 26.75080588 C493.83096426 29.70919272 496.78919753 32.66466502 499.74705735 35.62051302 C504.95145008 40.82217007 510.15397529 46.02568916 515.35529857 51.23041539 C523.14179879 59.02198996 530.93118483 66.8106748 538.72114235 74.5987926 C551.99644036 87.87112314 565.26936539 101.14582448 578.54101181 114.42180634 C591.99369105 127.87886081 605.44745849 141.33482594 618.9025631 154.78945541 C619.75180159 155.63866522 620.60104008 156.48787502 621.47601308 157.36281845 C625.80614365 161.69279265 630.13629201 166.02274907 634.46644666 170.3526992 C665.82394999 201.70879431 697.17903176 233.06731011 728.53283501 264.42710495 C736.28689117 272.18264029 744.04095624 279.93816671 751.7950542 287.69366026 C752.27707246 288.17576529 752.75909072 288.65787032 753.2557156 289.1545846 C775.58355579 311.48642209 797.91267884 333.81697669 820.24213067 356.1472027 C821.7024708 357.60759359 823.16281033 359.06798509 824.6231497 360.52837674 C833.42900348 369.33454461 842.23487062 378.14069912 851.04075319 386.9468382 C872.93223216 408.83895602 894.82355083 430.73123415 916.71476078 452.62362099 C917.21312708 453.12201392 917.71149339 453.62040686 918.2249617 454.13390262 C950.50316793 486.41383643 982.78071414 518.69443012 1015.05770779 550.9755764 C1015.57303675 551.49097166 1016.08836572 552.00636691 1016.61931071 552.5373802 C1032.30632042 568.2264106 1047.99328128 583.91548984 1063.68023258 599.60457864 C1081.03979485 616.96650588 1098.39936546 634.3284248 1115.75897217 651.69030762 C1116.28098204 652.21238599 1116.80299192 652.73446437 1117.34082028 653.2723633 C1166.92040101 702.85844449 1216.50132667 752.44318078 1266.08260014 802.02756938 C1268.18270208 804.12780346 1270.28280363 806.22803792 1272.38290515 808.32827241 C1291.70849866 827.65508931 1311.03410795 846.98189044 1330.35973706 866.30867174 C1330.87362318 866.82258849 1331.38750929 867.33650524 1331.91696771 867.86599523 C1333.47287666 869.42199695 1335.02878562 870.97799866 1336.58469458 872.53400037 C1378.61829902 914.57011065 1420.65176577 956.6063586 1462.68514333 998.64269575 C1464.16820716 1000.12586394 1465.6512711 1001.60903202 1467.13433507 1003.09220007 C1515.30304988 1051.26429613 1563.4715167 1099.43664013 1734.32983398 1270.31396484 C1735.58090838 1271.56518914 1735.58090838 1271.56518914 1736.85725701 1272.8416907 C1778.57159878 1314.56103304 1820.28585379 1356.28046212 1862 1398 C1860.44243301 1401.27448007 1858.78729545 1403.45782653 1856.2059679 1406.02616119 C1855.41063831 1406.82238939 1854.61530872 1407.61861758 1853.79587823 1408.4389739 C1852.47872568 1409.74227203 1852.47872568 1409.74227203 1851.13496399 1411.07189941 C1850.20558319 1411.99946124 1849.27620239 1412.92702306 1848.31865853 1413.88269281 C1845.73753325 1416.45858167 1843.15024044 1419.02819759 1840.56195104 1421.59688497 C1837.77234129 1424.36759304 1834.98855475 1427.14414007 1832.2041626 1429.92008972 C1827.37852785 1434.72971034 1822.54952603 1439.53592855 1817.71850014 1444.34013367 C1810.0874964 1451.92925764 1802.4662518 1459.52813994 1794.84648132 1467.12854004 C1792.24045695 1469.72768456 1789.63435659 1472.32675287 1787.02822399 1474.92578888 C1786.37695143 1475.57528978 1785.72567887 1476.22479069 1785.05467078 1476.89397344 C1777.64137583 1484.2867734 1770.22575414 1491.67723772 1762.80932617 1499.06689453 C1762.13132531 1499.74245284 1761.45332445 1500.41801114 1760.75477811 1501.11404091 C1749.75578508 1512.07298688 1738.75090944 1523.02601199 1727.74474857 1533.97775847 C1716.45244811 1545.2147066 1705.16971832 1556.46120558 1693.89505166 1567.71584654 C1686.93563365 1574.66216272 1679.96829745 1581.60034612 1672.99071147 1588.52841318 C1668.21440638 1593.27210297 1663.44711455 1598.0247244 1658.68692962 1602.78458989 C1655.9369706 1605.53377929 1653.1830041 1608.27863073 1650.41809654 1611.01279259 C1647.42657252 1613.97123488 1644.45451524 1616.94848002 1641.48408508 1619.92810059 C1640.15689429 1621.23139871 1640.15689429 1621.23139871 1638.80289155 1622.5610261 C1637.62163203 1623.75536839 1637.62163203 1623.75536839 1636.41650867 1624.97383881 C1635.72764098 1625.65972375 1635.03877329 1626.3456087 1634.32903081 1627.05227804 C1632.7808782 1628.89332002 1632.7808782 1628.89332002 1633.12808865 1631.07028723 C1634.63950573 1634.41535305 1637.37226691 1636.76891323 1639.95336914 1639.30981445 C1640.57464691 1639.9331366 1641.19592468 1640.55645874 1641.83602905 1641.19866943 C1643.89522082 1643.26087275 1645.96497056 1645.31211924 1648.03515625 1647.36328125 C1649.47246104 1648.79752696 1650.90917453 1650.23236547 1652.34532166 1651.66777039 C1655.36134087 1654.67918299 1658.38220625 1657.68561611 1661.40698242 1660.68823242 C1665.26810146 1664.5211962 1669.12061198 1668.36266299 1672.96991825 1672.20748615 C1676.65518854 1675.88757359 1680.34512193 1679.56297191 1684.03515625 1683.23828125 C1684.73206133 1683.93330561 1685.42896641 1684.62832996 1686.14698982 1685.34441566 C1695.57137098 1694.77873993 1695.57137098 1694.77873993 1705.47703552 1703.69917297 C1707.50838569 1705.43423327 1709.40068444 1707.28735682 1711.28125 1709.18359375 C1711.97734375 1709.88291016 1712.6734375 1710.58222656 1713.390625 1711.30273438 C1714.08671875 1712.00720703 1714.7828125 1712.71167969 1715.5 1713.4375 C1716.22703125 1714.16904297 1716.9540625 1714.90058594 1717.703125 1715.65429688 C1719.47109623 1717.43389949 1721.23620179 1719.21626446 1723 1721 C1730.04917598 1715.23661631 1736.37804749 1708.7581854 1742.80039978 1702.31985474 C1744.10554 1701.0151509 1745.41090007 1699.71066695 1746.71646029 1698.4063834 C1750.29438902 1694.83068658 1753.86919908 1691.25188611 1757.44350111 1687.67256451 C1761.30186129 1683.80988131 1765.16311569 1679.95009317 1769.02401733 1676.08995056 C1775.70992294 1669.40456901 1782.39399683 1662.71736063 1789.0768261 1656.02890396 C1798.73905008 1646.35854902 1808.40403791 1636.69096029 1818.06970007 1627.024042 C1833.75195568 1611.33959838 1849.43198177 1595.6529276 1865.1105957 1579.96484375 C1880.33988841 1564.72636315 1895.57023375 1549.48893589 1910.80200195 1534.25292969 C1911.27170888 1533.78309123 1911.74141581 1533.31325278 1912.22535628 1532.82917679 C1917.41051977 1527.64256392 1922.59571204 1522.45597982 1927.78091609 1517.26940751 C1966.85714983 1478.18280898 2005.92975881 1439.09258851 2045 1400 C2043.6451199 1396.97667302 2042.13092614 1394.88145995 2039.7920251 1392.54457344 C2039.12534931 1391.87361427 2038.45867351 1391.20265511 2037.77179542 1390.51136384 C2037.03537048 1389.7804292 2036.29894555 1389.04949456 2035.5402047 1388.29641038 C2034.75664394 1387.51079037 2033.97308318 1386.72517036 2033.16577815 1385.91574368 C2030.51174282 1383.25721488 2027.85057217 1380.60594271 2025.18944073 1377.95451832 C2023.26804115 1376.03396774 2021.34815546 1374.11190631 2019.42819807 1372.18991414 C2015.22574158 1367.984618 2011.01955703 1363.78307934 2006.81097009 1359.58391885 C2000.51039469 1353.29741023 1994.21561177 1347.00512515 1987.92198306 1340.71166293 C1977.19678944 1329.98708014 1966.46688519 1319.26722159 1955.73445702 1308.54987907 C1944.85299476 1297.68366334 1933.97372992 1286.81525454 1923.09717178 1275.94412994 C1922.41101732 1275.25832002 1921.72486285 1274.57251009 1921.01791583 1273.86591804 C1917.5193753 1270.36910973 1914.02087487 1266.87226131 1910.52239199 1263.37539534 C1903.3484293 1256.20477844 1896.1741582 1249.03447012 1888.99977648 1241.86427248 C1887.91578033 1240.78090839 1887.91578033 1240.78090839 1886.80988527 1239.67565816 C1870.14460903 1223.02026468 1853.47610809 1206.36809942 1836.80752515 1189.71601538 C1810.90424016 1163.83833733 1785.0037778 1137.95783907 1759.1073246 1112.0733242 C1757.93765629 1110.90419559 1757.93765629 1110.90419559 1756.74435832 1109.71144822 C1747.2349064 1100.20635968 1737.72558786 1090.70113771 1728.21630839 1081.19587665 C1713.71030677 1066.69602275 1699.20401941 1052.19645472 1684.69771149 1037.69690726 C1683.06907939 1036.06903412 1681.44044797 1034.4411603 1679.81181721 1032.81328581 C1641.41159592 994.43090715 1603.00883151 956.05107343 1564.60505705 917.67224994 C1562.05624816 915.12509623 1559.50744191 912.57793987 1556.95863605 910.03078313 C1517.71085014 870.80842114 1478.46176111 831.58736369 1439.21044922 792.36853027 C1437.50570456 790.66519421 1435.80095997 788.96185808 1434.09621544 787.25852188 C1426.43620854 779.60484589 1418.77619282 771.95117872 1411.11617597 764.29751267 C1407.71858972 760.90274305 1404.3210043 757.5079726 1400.92341876 754.11320226 C1398.37785316 751.56974714 1395.83228565 749.02629392 1393.28671806 746.48284079 C1354.93777957 708.16572264 1316.59034889 669.84709795 1278.24906635 631.52231884 C1277.44303932 630.71664019 1276.63701229 629.91096154 1275.8065602 629.08086838 C1258.90630458 612.18789041 1242.00644735 595.29451396 1225.10712571 578.40060166 C1217.19305663 570.48907143 1209.27888448 562.57764433 1201.36464882 554.66628075 C1200.58544471 553.88735643 1199.8062406 553.10843211 1199.00342425 552.30590402 C1173.90623145 527.21783219 1148.80222684 502.13658955 1123.69447944 477.05908095 C1098.40057489 451.7956116 1073.11268572 426.52613888 1047.83329134 401.24814972 C1044.33833847 397.75339681 1040.84331185 394.25871768 1037.3482399 390.76408386 C1036.66312323 390.07904833 1035.97800657 389.39401279 1035.27212879 388.6882186 C1024.43276038 377.85050973 1013.58666304 367.01956104 1002.73771929 356.19143833 C992.06437335 345.53830349 981.39819136 334.87804024 970.73953193 324.21021085 C964.4943314 317.96006961 958.24374123 311.71543999 951.98491545 305.4789423 C947.82174137 301.32952131 943.66595607 297.17279455 939.51594448 293.01020947 C937.16763439 290.65518899 934.81543363 288.30448089 932.4561698 285.96040678 C906.28808316 259.95063329 886.48162401 230.66463658 876 195 C875.62230469 193.75089844 875.24460937 192.50179687 874.85546875 191.21484375 C870.31394183 175.31099478 868.50428885 159.4939284 868.66381836 142.98339844 C868.68755604 140.36882805 868.6843247 137.75527738 868.67773438 135.140625 C868.70054881 120.35704774 869.74428337 105.93814324 873.6875 91.625 C873.94950195 90.6558667 874.21150391 89.6867334 874.48144531 88.68823242 C883.26768003 57.02096201 899.33462406 24.43413305 924 2 C925.88757839 1.14309086 925.88757839 1.14309086 928 1 C930.00683205 2.38250643 930.00683205 2.38250643 932.17374574 4.55038991 C933.42125705 5.7802545 933.42125705 5.7802545 934.69397062 7.03496484 C935.60491194 7.95845055 936.51585326 8.88193626 937.45439887 9.83340639 C938.43841444 10.81309788 939.42352504 11.79169052 940.40963316 12.76927573 C943.14211261 15.48457327 945.85861518 18.21539607 948.57297646 20.94878921 C951.52998431 23.9210328 954.50142444 26.87878658 957.47109264 29.83837101 C962.7024718 35.05602831 967.92439244 40.2830082 973.14042315 45.51600724 C980.94904253 53.34992969 988.77197524 61.16944099 996.59785994 68.98611115 C1009.93205781 82.30544922 1023.25433305 95.63665532 1036.57027245 108.97424507 C1050.0727535 122.49858327 1063.58064417 136.0174836 1077.09524727 149.52970886 C1078.37355045 150.80779685 1078.37355045 150.80779685 1079.67767794 152.11170481 C1084.02274891 156.45599394 1088.36790881 160.8001941 1092.71310015 165.14436284 C1124.19948423 196.62370123 1155.67373877 228.1151464 1187.14162445 259.61297417 C1194.92783777 267.40658323 1202.71409565 275.20014777 1210.50051785 282.99354815 C1210.98452998 283.47799412 1211.46854211 283.96244009 1211.96722128 284.46156624 C1234.37766508 306.89198797 1256.79451482 329.31600298 1279.21301356 351.73837371 C1280.67875728 353.20437123 1282.14449798 354.67037178 1283.61023791 356.13637309 C1292.44853092 364.97623656 1301.28689074 373.81603323 1310.12532771 382.65575276 C1332.09881024 404.63242973 1354.07149114 426.60990807 1376.04362869 448.58792973 C1376.54386568 449.08829988 1377.04410266 449.58867003 1377.55949834 450.10420291 C1409.96514351 482.51848763 1442.36748689 514.93607059 1474.76707077 547.35641384 C1475.28445131 547.87412582 1475.80183184 548.3918378 1476.33489058 548.92523803 C1492.0847193 564.68517042 1507.83430384 580.44534681 1523.58384063 596.20557092 C1541.01273537 613.64629041 1558.44167175 631.08696827 1575.87078857 648.52746582 C1576.39488071 649.05190045 1576.91897284 649.57633508 1577.45894655 650.11666167 C1627.22610963 699.91632041 1676.99999228 749.7092607 1726.77561627 799.50046244 C1728.88366409 801.60917098 1730.99170996 803.71788145 1733.09975575 805.82659201 C1752.49829476 825.23124799 1771.89691269 844.63582507 1791.29562972 864.04030308 C1791.81145438 864.55628094 1792.32727905 865.0722588 1792.85873476 865.60387236 C1794.42051304 867.16611445 1795.98229136 868.72835652 1797.54406967 870.29059859 C1839.73745818 912.49651669 1881.93015836 954.70312288 1924.12241269 996.91017479 C1925.61111849 998.39940236 1927.09982482 999.8886294 1928.58853131 1001.37785627 C1976.94414752 1049.75038006 2025.29852349 1098.12414312 2196.82324219 1269.74389648 C2197.66058997 1270.58174395 2198.49793776 1271.41959141 2199.36065971 1272.28282818 C2241.24091017 1314.18808206 2283.120727 1356.09376928 2325 1398 C2323.43748791 1401.28519168 2321.76790956 1403.48178912 2319.1842556 1406.06463337 C2318.38402611 1406.86946165 2317.58379662 1407.67428994 2316.75931776 1408.50350696 C2315.87568229 1409.38199886 2314.99204682 1410.26049077 2314.08163452 1411.16560364 C2313.13648008 1412.11234621 2312.19176368 1413.05952626 2311.24744856 1414.00710601 C2308.64954061 1416.61143426 2306.04542117 1419.20947335 2303.4402535 1421.80653679 C2300.6321456 1424.60807224 2297.82979983 1427.41536107 2295.0267334 1430.22193909 C2289.53265316 1435.72106496 2284.03323983 1441.2148277 2278.53201596 1446.70680622 C2272.12407921 1453.10436087 2265.7213709 1459.50713746 2259.31886669 1465.91012808 C2247.89067998 1477.33881566 2236.45766632 1488.76266232 2225.02197266 1500.18383789 C2213.93111324 1511.2606243 2202.84374728 1522.34089185 2191.76025391 1533.42504883 C2191.0782936 1534.10704909 2190.39633329 1534.78904936 2189.69370751 1535.4917163 C2189.01291708 1536.17254709 2188.33212664 1536.85337788 2187.63070619 1537.55483991 C2175.01040734 1550.17582949 2162.38681673 1562.7935221 2149.76170038 1575.4096925 C2145.30030702 1579.868074 2140.83988647 1584.32742736 2136.37977219 1588.78708839 C2130.93853718 1594.22763966 2125.49540517 1599.66628511 2120.04993264 1605.10259513 C2117.27307713 1607.8748478 2114.4969955 1610.64786315 2111.72307205 1613.42304993 C2109.17993901 1615.96728496 2106.63448358 1618.50917289 2104.08721061 1621.04926284 C2102.73754242 1622.39628273 2101.39028822 1623.74572005 2100.04314268 1625.09526283 C2095.82360037 1629.29812896 2091.53045013 1633.32324393 2087.01801074 1637.20795661 C2083.05430875 1640.7278219 2079.3506048 1644.51617698 2075.60998535 1648.26976013 C2074.69660133 1649.18228973 2073.78321731 1650.09481933 2072.84215498 1651.03500134 C2070.32683652 1653.54809946 2067.81462037 1656.0642783 2065.30293131 1658.58100307 C2062.58639378 1661.3018805 2059.86694469 1664.01984526 2057.14785767 1666.73817444 C2052.44382408 1671.44168503 2047.74161715 1676.14701531 2043.04066467 1680.85360527 C2036.24396921 1687.65844614 2029.44449668 1694.46050659 2022.64435476 1701.26190317 C2011.61022851 1712.29821517 2000.57833481 1723.336756 1989.54785156 1734.37670898 C1978.8361363 1745.09761072 1968.1233657 1755.81745611 1957.40917969 1766.53588867 C1956.74816846 1767.19716263 1956.08715723 1767.85843658 1955.40611535 1768.53974914 C1952.08983384 1771.85733574 1948.77353163 1775.17490165 1945.45721912 1778.49245727 C1917.96826972 1805.99176442 1890.48294618 1833.49469328 1863 1861 C1866.82912714 1865.5748876 1870.78865886 1869.93280386 1875.01695824 1874.14000607 C1875.59455161 1874.71875328 1876.17214498 1875.2975005 1876.76724118 1875.89378551 C1878.69357313 1877.82275376 1880.62343567 1879.74814924 1882.55331421 1881.67356873 C1883.95288849 1883.07357931 1885.35224289 1884.47380973 1886.75139678 1885.87424046 C1890.58932898 1889.71440581 1894.43036744 1893.55145092 1898.27192426 1897.38798988 C1902.41681779 1901.52856218 1906.55881814 1905.67202687 1910.70117188 1909.81513977 C1917.87601456 1916.99050663 1925.0526849 1924.16404129 1932.23060226 1931.33633232 C1942.60864536 1941.706246 1952.98392584 1952.07892086 1963.35853143 1962.4522735 C1980.19095959 1979.28260235 1997.02570406 1996.11061253 2013.86181641 2012.93725586 C2030.21585659 2029.28210878 2046.56884393 2045.62801389 2062.92041016 2061.9753418 C2063.67671277 2062.73144712 2063.67671277 2062.73144712 2064.44829422 2063.5028273 C2069.51178513 2068.56499967 2074.57525469 2073.62719341 2079.63870859 2078.6894028 C2089.95315793 2089.00131607 2100.26774983 2099.31308672 2110.58242798 2109.62477112 C2111.05665949 2110.09886534 2111.53089101 2110.57295957 2112.01949318 2111.06142029 C2143.67727357 2142.71000307 2175.33838731 2174.35525115 2207 2206 C2205.44748001 2209.33684917 2204.28950813 2210.77494045 2201.09765625 2212.6640625 C2199.90136597 2213.37973389 2199.90136597 2213.37973389 2198.6809082 2214.10986328 C2197.8168335 2214.6098584 2196.95275879 2215.10985352 2196.0625 2215.625 C2195.16297607 2216.15206543 2194.26345215 2216.67913086 2193.33666992 2217.22216797 C2190.5672215 2218.8319235 2187.78639046 2220.41977856 2185 2222 C2184.20787109 2222.45246094 2183.41574219 2222.90492188 2182.59960938 2223.37109375 C2161.38577585 2235.37341745 2137.81770106 2244.70381488 2114 2250 C2112.85144531 2250.25652344 2111.70289062 2250.51304687 2110.51953125 2250.77734375 C2106.68951115 2251.58854927 2102.85459754 2252.31525114 2099 2253 C2097.83210938 2253.20882812 2096.66421875 2253.41765625 2095.4609375 2253.6328125 C2039.13314212 2261.9128818 1982.98123443 2245.85563832 1937.5 2212.3125 C1935.65816666 2210.8859071 1933.82437776 2209.44884891 1932 2208 C1931.12730469 2207.319375 1930.25460937 2206.63875 1929.35546875 2205.9375 C1924.03381585 2201.69887748 1918.99396689 2197.2185053 1914.02695834 2192.5737396 C1913.37172003 2191.96119917 1912.71648172 2191.34865874 1912.04138771 2190.71755647 C1905.18756618 2184.28032532 1898.5229677 2177.66227581 1891.88116658 2171.00766641 C1890.52128363 2169.64890388 1889.16118218 2168.29036 1887.80088572 2166.93201145 C1884.08586195 2163.22105785 1880.37391824 2159.50703713 1876.66249909 2155.79247896 C1872.60070657 2151.72836997 1868.53599304 2147.66718406 1864.47166467 2143.60561135 C1857.3288968 2136.46688717 1850.18798237 2129.3263132 1843.04828121 2122.18452195 C1835.35164643 2114.48564643 1827.65393501 2106.78784993 1819.95490061 2099.09137406 C1819.46562812 2098.60226277 1818.97635564 2098.11315148 1818.47225671 2097.60921863 C1815.97381987 2095.11161437 1813.4753659 2092.61402725 1810.9769063 2090.11644575 C1792.75383045 2071.89969737 1774.53322578 2053.68047892 1756.31387901 2035.46000099 C1737.85110216 2016.99609149 1719.38724205 1998.53326625 1700.92206383 1980.07175827 C1699.74393969 1978.89386613 1698.56581556 1977.71597397 1697.38769145 1976.53808181 C1692.63735477 1971.78868469 1687.88700972 1967.03929594 1683.13665515 1962.28991671 C1669.74705566 1948.90306229 1656.35763894 1935.51602507 1642.96834826 1922.12886178 C1642.0480887 1921.20874855 1642.0480887 1921.20874855 1641.10923804 1920.27004716 C1606.23091243 1885.39722478 1571.35518526 1850.52180391 1536.47940551 1815.6464355 C1531.14910537 1810.3161986 1525.81880358 1804.98596334 1520.48849967 1799.65573021 C1519.15249098 1798.31973921 1517.81648244 1796.98374805 1516.48047406 1795.64775673 C1486.49117381 1765.65884432 1456.50097813 1735.67082746 1426.51059004 1705.68300295 C1419.81653997 1698.98952445 1413.1224987 1692.29603715 1406.42845687 1685.60255041 C1405.76398443 1684.9381331 1405.099512 1684.27371579 1404.41490404 1683.58916462 C1400.38142807 1679.55602316 1396.34795247 1675.52288132 1392.31447711 1671.48973925 C1390.29391518 1669.46934441 1388.27335303 1667.44894977 1386.25279087 1665.42855516 C1354.83789509 1634.01626115 1323.42318503 1602.60378142 1292.00866508 1571.19111156 C1291.32421424 1570.5067011 1290.63976341 1569.82229063 1289.93457163 1569.11714045 C1246.32403382 1525.50916546 1202.7143276 1481.90035894 1159.10520261 1438.29097109 C1156.96103584 1436.14679157 1154.81686867 1434.00261244 1152.67270137 1431.85843344 C1137.60913814 1416.79478787 1122.54558509 1401.73113211 1107.4820346 1386.66747379 C1103.16300869 1382.34841712 1098.84398244 1378.0293608 1094.52495615 1373.71030452 C1090.92232764 1370.10765093 1087.31969949 1366.50499698 1083.71707206 1362.90234232 C1015.65928848 1294.84404722 947.60053905 1226.78671855 879.53778076 1158.73339844 C878.82100469 1158.01672172 878.10422862 1157.30004501 877.36573206 1156.56165082 C854.96950021 1134.16853042 832.57314086 1111.77553754 810.17675781 1089.38256836 C787.19602594 1066.40533789 764.21530954 1043.42809194 741.23468208 1020.45075703 C740.52710042 1019.74327689 739.81951876 1019.03579676 739.09049523 1018.30687783 C694.78260644 974.00533733 650.4759306 929.70258404 606.1705761 885.39850903 C605.48639298 884.71434594 604.80220986 884.03018284 604.09729392 883.32528754 C574.05118331 853.28005221 544.00535043 823.23453916 513.95982045 793.18872319 C501.87302823 781.10181668 489.7862069 769.01493928 477.69937402 756.92807344 C475.69532689 754.9240199 473.6912811 752.91996503 471.6872356 750.91590987 C441.0290413 720.25757905 410.37010542 689.59999034 379.70892572 658.94464517 C379.04757701 658.28342213 378.3862283 657.62219909 377.70483872 656.94093898 C367.0661502 646.3042795 356.4274042 635.66767751 345.78865332 625.0310804 C315.59345732 594.84199226 285.39879283 564.65237335 255.20771289 534.45916879 C254.59529447 533.84670766 253.98287605 533.23424652 253.35189949 532.60322596 C239.99197373 519.24234691 226.63232922 505.88118666 213.27296069 492.51975044 C207.94517839 487.19115181 202.61735974 481.86258954 197.2895298 476.53403854 C196.70835298 475.95278107 196.12717616 475.3715236 195.52838792 474.77265226 C177.08759139 456.32933101 158.64372409 437.88908456 140.19808251 419.45060907 C122.0385168 401.29807234 103.88198458 383.14250775 85.72987513 364.98251476 C83.24427444 362.49583542 80.75863885 360.00919096 78.27298234 357.52256741 C77.78636433 357.03575739 77.29974632 356.54894736 76.79838231 356.04738551 C68.65844825 347.90443262 60.51458139 339.76542392 52.36963263 331.62748721 C45.32271907 324.58609742 38.27941186 317.54111425 31.23907598 310.49314778 C27.24300739 306.49295246 23.2453845 302.49434557 19.24332285 298.50014533 C15.61102741 294.87492685 11.98337877 291.24512458 8.35935194 287.61164073 C7.06008909 286.31059056 5.75916229 285.0111993 4.45633926 283.71371418 C-2.82743847 276.45776405 -9.68362822 269.1310227 -16 261 C-16.47590634 260.38981909 -16.95181268 259.77963818 -17.44214043 259.15096694 C-28.68615813 244.4346573 -37.49365398 228.36656128 -44.17724609 211.12060547 C-44.90670308 209.24046797 -45.664229 207.37127409 -46.42578125 205.50390625 C-61.73506358 166.02207288 -61.04579138 117.8473492 -48 78 C-47.75878418 77.26217285 -47.51756836 76.5243457 -47.26904297 75.76416016 C-43.78977405 65.38374341 -39.15616271 55.64320506 -34 46 C-33.67773438 45.39414062 -33.35546875 44.78828125 -33.0234375 44.1640625 C-24.31378086 27.9485229 -13.22238546 12.84639346 0 0 Z " fill="#FEFEFE" transform="translate(1366,750)"/>
<path d="M0 0 C3.92536085 1.82081134 6.62937902 4.3549333 9.644104 7.40359497 C10.20288482 7.96066694 10.76166564 8.51773891 11.33737922 9.09169185 C13.20919798 10.96021544 15.07377721 12.83579931 16.93847656 14.71142578 C18.27852143 16.05203476 19.61900678 17.39220357 20.9598999 18.73196411 C24.60040279 22.37189247 28.23470023 26.01796057 31.86793232 29.66514444 C35.6653614 33.47506409 39.4684435 37.27933216 43.27093506 41.084198 C50.47134033 48.29082296 57.66663157 55.50253165 64.86010909 62.71607101 C73.04957417 70.92787986 81.24470944 79.13401996 89.44033098 87.33968377 C106.29988039 104.22014625 123.15228013 121.10773149 140 138 C138.62099237 141.09650697 137.03828505 143.21156413 134.64645433 145.602888 C133.94721031 146.30683781 133.2479663 147.01078762 132.52753307 147.73606924 C131.75463195 148.5039526 130.98173084 149.27183596 130.18540847 150.06298852 C129.36342806 150.88752511 128.54144765 151.71206169 127.69455874 152.56158423 C125.39824226 154.86299395 123.09746611 157.15983709 120.7947922 159.4548827 C118.28663566 161.95692967 115.78428618 164.46477301 113.28119904 166.97188962 C108.87193612 171.38663416 104.45894076 175.79762049 100.04354022 180.20622614 C93.43357619 186.80605775 86.82937879 193.41163751 80.22632133 200.01837818 C68.97443147 211.27620829 57.71779451 222.52928096 46.45860291 233.77980804 C35.04342139 245.18624359 23.63041534 256.59484925 12.22008133 268.00613403 C11.50029375 268.72597899 10.78050618 269.44582395 10.03890686 270.1874824 C6.36893539 273.8577666 2.6989995 277.52808639 -0.97092381 281.19841874 C-27.55741871 307.78773116 -54.14875646 334.37219596 -80.74264908 360.95410919 C-107.0855751 387.28519719 -133.42643647 413.61834779 -159.76452255 439.95427704 C-160.58196586 440.77165152 -161.39940917 441.58902601 -162.24162349 442.43116941 C-169.70752003 449.89643957 -177.17339107 457.36173524 -184.63923152 464.8270615 C-203.19989563 483.38644669 -221.76087962 501.94551195 -240.32208061 520.5043602 C-241.16739075 521.3495637 -242.01270089 522.19476721 -242.88362649 523.06558294 C-284.02028424 564.19699548 -325.1606267 605.32472194 -366.30126953 646.45214844 C-380.58104732 660.72734297 -394.86080883 675.00255379 -409.14050293 689.27783203 C-410.02611035 690.16316555 -410.91171777 691.04849908 -411.82416178 691.96066089 C-452.98062813 733.10444309 -494.13447947 774.25084053 -535.28765488 815.39791439 C-537.95878818 818.06865157 -540.62992261 820.73938761 -543.30105727 823.41012343 C-561.00255008 841.10897671 -578.70399779 858.80787511 -596.40541528 876.50680372 C-631.62795332 911.72438853 -666.85075641 946.94170825 -702.07374155 982.15884589 C-703.7512168 983.83604266 -705.42869186 985.51323961 -707.10616673 987.19043674 C-782.63875258 1062.71051369 -858.17442184 1138.22750622 -933.71142578 1213.74316406 C-934.41884372 1214.45038213 -935.12626166 1215.1576002 -935.85511651 1215.88624912 C-971.23655623 1251.25768757 -1006.61816937 1286.62895256 -1042 1322 C-1043.10690958 1321.06721103 -1044.21151939 1320.13169267 -1045.31518555 1319.19506836 C-1045.93056686 1318.67440292 -1046.54594818 1318.15373749 -1047.17997742 1317.61729431 C-1049.97064836 1315.13747 -1052.40051213 1312.40581384 -1054.8125 1309.5625 C-1055.32603027 1308.95760742 -1055.83956055 1308.35271484 -1056.36865234 1307.72949219 C-1091.05384163 1266.09012068 -1104.01599183 1212.79449213 -1099.23071289 1159.51611328 C-1095.64491001 1125.3316232 -1082.3529293 1091.08003947 -1061 1064 C-1060.26265625 1063.05382813 -1059.5253125 1062.10765625 -1058.765625 1061.1328125 C-1047.95715376 1047.60305949 -1035.62464762 1035.48138568 -1023.38879108 1023.26574326 C-1021.60040755 1021.47661917 -1019.81224356 1019.68727561 -1018.02427807 1017.89773375 C-1014.13810883 1014.00914269 -1010.25040192 1010.12209914 -1006.36131225 1006.23642907 C-1000.53937759 1000.41959337 -994.72036072 994.59984507 -988.90189224 988.77954248 C-978.98357671 978.85826744 -969.0629035 968.93935303 -959.1409359 959.02173042 C-949.09008666 948.97526321 -939.04033414 938.9277008 -928.99191284 928.87880516 C-928.0390168 927.92586608 -928.0390168 927.92586608 -927.06687033 926.9536757 C-923.82751781 923.7141668 -920.58818308 920.47464012 -917.34885462 917.23510716 C-893.91728021 893.80212615 -870.48328979 870.37156252 -847.04801369 846.94228363 C-823.84248286 823.74267701 -800.63798881 800.54203419 -777.43488121 777.34000397 C-776.71404777 776.61920494 -775.99321432 775.8984059 -775.25053744 775.15576448 C-768.6667499 768.57229013 -762.0829751 761.98880303 -755.49921562 755.40530063 C-739.13336925 739.04009362 -722.76736292 722.6750466 -706.40124798 706.31010818 C-705.2833834 705.19232358 -705.2833834 705.19232358 -704.1429357 704.05195747 C-667.89889714 667.81053988 -631.65301559 631.57096567 -595.40698242 595.33154297 C-582.83018351 582.75703573 -570.25339275 570.18252034 -557.67663574 557.60797119 C-556.89661468 556.82808708 -556.11659362 556.04820297 -555.31293555 555.244686 C-519.045702 518.98379757 -482.77977853 482.72159898 -446.51419254 446.45906278 C-444.15954626 444.10461457 -441.80489942 441.75016692 -439.45025247 439.39571939 C-423.84576888 423.79255559 -408.24130786 408.18936922 -392.63686196 392.58616774 C-361.58839441 361.54017663 -330.53979424 330.49431815 -299.49110296 299.44855079 C-298.01251293 297.9701 -296.533923 296.49164912 -295.05533316 295.01319815 C-228.50013558 228.46425294 -161.94339546 161.91685055 -95.38598633 95.37011719 C-94.76282279 94.74705358 -94.13965925 94.12398998 -93.49761196 93.48204565 C-62.3318355 62.32126956 -31.16597098 31.16058154 0 0 Z " fill="#F8150B" transform="translate(2409,2226)"/>
<path d="M0 0 C1.27585697 1.29530334 1.27585697 1.29530334 2.82374573 3.19165039 C8.1439729 9.4396178 14.01301463 15.1443748 19.82006836 20.93359375 C21.11193984 22.22518275 22.40359035 23.5169928 23.69503784 24.80900574 C27.18194657 28.29620004 30.67191833 31.78031393 34.16246867 35.26386261 C37.81710685 38.91222723 41.46889194 42.56344539 45.12098694 46.21435547 C52.02840347 53.11867046 58.93836399 60.0204335 65.84925324 66.92127228 C73.72065579 74.78147708 81.58920119 82.64453943 89.45751369 90.5078373 C105.63517626 106.67506214 121.81640473 122.83871403 138 139 C133.94030157 143.87061003 129.68701224 148.45572226 125.19544137 152.92875713 C124.53153903 153.59393755 123.86763669 154.25911798 123.1836161 154.94445538 C120.95920533 157.17192783 118.73125151 159.3958217 116.50329781 161.61975002 C114.88446247 163.23932515 113.26584664 164.85911972 111.64743054 166.47911379 C107.18348516 170.94613206 102.7164179 175.41001709 98.2488521 179.87341409 C93.89542389 184.22327199 89.5448515 188.57598534 85.19396476 192.928385 C76.18631657 201.93899789 67.17630253 210.94724168 58.16500282 219.95420265 C49.03282581 229.08200209 39.90174089 238.21089194 30.77198982 247.34111786 C30.19542358 247.9177128 29.61885733 248.49430774 29.02481938 249.08837525 C26.08492994 252.02842106 23.1450583 254.96848465 20.20519293 257.90855453 C-1.07600745 279.19116257 -22.35962669 300.47135027 -43.64452744 321.75025749 C-64.72459033 342.82439872 -85.80361871 363.89957383 -106.88125992 384.97613716 C-107.86300398 385.9578296 -107.86300398 385.9578296 -108.86458125 386.95935422 C-114.84235946 392.93681923 -120.82012492 398.91429699 -126.79787507 404.89179006 C-141.65815291 419.75142848 -156.51859069 434.61090694 -171.37913704 449.47027683 C-172.05586701 450.14695349 -172.73259698 450.82363014 -173.42983392 451.52081214 C-206.35200893 484.44036538 -239.27602667 517.35807546 -272.20019531 550.27563477 C-283.62617634 561.69932414 -295.05214923 573.12302167 -306.47808838 584.54675293 C-307.18672249 585.25525009 -307.89535659 585.96374725 -308.62546446 586.69371401 C-341.56568949 619.62759541 -374.50460569 652.56278571 -407.44318415 685.4983139 C-409.58147992 687.63641161 -411.71977625 689.77450875 -413.8580727 691.91260578 C-428.02862799 706.08184129 -442.19916071 720.25109936 -456.36967833 734.42037255 C-484.56569267 762.61391036 -512.76183958 790.80731559 -540.95807757 819.00062974 C-542.30086769 820.34328062 -543.64365773 821.6859316 -544.98644767 823.02858267 C-605.43877026 883.47465187 -665.89263502 943.91917859 -726.34716797 1004.36303711 C-726.91326228 1004.92903149 -727.47935659 1005.49502586 -728.06260528 1006.07817158 C-756.37497606 1034.38554186 -784.68743484 1062.69282413 -813 1091 C-814.11267986 1090.06015433 -815.22337708 1089.11796115 -816.33325195 1088.17480469 C-817.26135429 1087.38816437 -817.26135429 1087.38816437 -818.20820618 1086.58563232 C-843.20632302 1064.46376674 -859.87499037 1027.22559607 -866.546875 995.15576172 C-866.86471323 993.64363262 -867.1995417 992.13502235 -867.546875 990.62939453 C-877.029124 949.10451187 -870.40189299 904.08691117 -852 866 C-851.63648438 865.24396484 -851.27296875 864.48792969 -850.8984375 863.70898438 C-843.04619843 847.62319246 -832.96467616 833.28551921 -821 820 C-820.26827298 819.18599642 -819.53654597 818.37199285 -818.78264541 817.5333225 C-811.4237676 809.42501496 -803.78140063 801.63967636 -796.03322506 793.90459061 C-794.64281312 792.51282948 -793.25261934 791.12085037 -791.86262193 789.72867525 C-788.05617601 785.91752547 -784.24665069 782.10946713 -780.43659523 778.30192632 C-776.2869696 774.15393971 -772.14024058 770.00305901 -767.99313313 765.85255504 C-760.72917831 758.58345466 -753.4633832 751.3161976 -746.19632339 744.05020142 C-738.40306858 736.25807286 -730.61089916 728.46486128 -722.82003593 720.67034149 C-722.32708908 720.17716499 -721.83414223 719.68398848 -721.3262576 719.17586723 C-719.31843046 717.16709842 -717.31061033 715.1583226 -715.30279927 713.14953772 C-694.38513263 692.22174054 -673.46393883 671.29747187 -652.54149973 650.37444606 C-650.29160601 648.1244876 -648.04171388 645.87452753 -645.79182315 643.62456608 C-644.95434551 642.78706293 -644.95434551 642.78706293 -644.09994913 641.93264053 C-631.72056791 629.55285063 -619.34207777 617.17216991 -606.96374481 604.7913319 C-601.86508782 599.69164657 -596.76641168 594.59198038 -591.66773945 589.49231029 C-590.8226998 588.64710475 -590.8226998 588.64710475 -589.96058865 587.78482436 C-557.69182954 555.50974401 -525.42197396 523.2357603 -493.1498251 490.96406937 C-491.94278015 489.7570402 -490.73573522 488.550011 -489.52869031 487.34298179 C-484.07906089 481.89342576 -478.62942408 476.44387711 -473.17978519 470.99433055 C-470.74967183 468.56425832 -468.31955896 466.13418559 -465.88944614 463.70411282 C-464.67313449 462.48782157 -463.45682254 461.27153063 -462.24051026 460.05524 C-423.74373358 421.55914419 -385.25096466 383.05904522 -346.76147461 344.55566406 C-337.05591709 334.84660565 -327.35034382 325.13756298 -317.64468288 315.42860794 C-317.04710089 314.83082307 -316.44951889 314.2330382 -315.83382835 313.61713864 C-297.42702376 295.20412281 -279.01899802 276.79232852 -260.60971928 258.38178635 C-260.03209027 257.80411739 -259.45446126 257.22644843 -258.85932835 256.63127435 C-246.18166306 243.95275596 -233.50370194 231.27453342 -220.82546765 218.59658403 C-216.28968867 214.06090154 -211.75393192 209.52519683 -207.21818609 204.9894812 C-206.08978976 203.86109278 -204.96139228 202.73270551 -203.83299365 201.60431939 C-185.83239555 183.60389782 -167.83474074 165.60053689 -149.83854358 147.5957155 C-131.72804456 129.4765815 -113.6143402 111.36065827 -95.4962158 93.24914905 C-92.99656552 90.75041114 -90.4969498 88.25163868 -87.99735451 85.75284576 C-87.50734019 85.26299154 -87.01732588 84.77313731 -86.51246264 84.26843901 C-78.7329348 76.49127025 -70.95677999 68.71073784 -63.18200146 60.92882153 C-55.54959798 53.28955049 -47.9135868 45.65390172 -40.27390106 38.02191327 C-36.18232704 33.93425442 -32.09240411 29.84497801 -28.00679832 25.75135317 C-24.29853644 22.03587604 -20.58579949 18.32493582 -16.86926023 14.61773895 C-15.52585783 13.27607422 -14.18417041 11.93268982 -12.84431017 10.58748768 C-11.03962636 8.77608508 -9.22901765 6.97083054 -7.4166593 5.16711164 C-6.89029989 4.63585261 -6.36394048 4.10459358 -5.82163078 3.55723579 C-2.22831078 0 -2.22831078 0 0 0 Z " fill="#F8150B" transform="translate(2643,2457)"/>
<path d="M0 0 C1.10638422 0.9402466 2.21160493 1.88186238 3.31634718 2.82403767 C4.2397426 3.61035566 4.2397426 3.61035566 5.18179247 4.41255886 C7.86495131 6.75517193 10.38066718 9.24570327 12.89097595 11.77072144 C13.44006939 12.31896045 13.98916283 12.86719946 14.55489546 13.43205178 C16.37352884 15.24905281 18.18859152 17.06957723 20.00366211 18.89013672 C21.31480784 20.20156483 22.62617442 21.51277217 23.93774414 22.82377625 C27.48284719 26.36859332 31.02486651 29.91647709 34.56632686 33.46493292 C38.27342444 37.17829729 41.98336905 40.88881507 45.69300842 44.59963989 C52.71068679 51.62042178 59.72581292 58.64374808 66.74001843 65.66799939 C74.72837483 73.66754735 82.71958337 81.66424358 90.71102893 89.66070533 C107.14385428 106.10397289 123.57310704 122.55080611 140 139 C134.45618002 145.75310561 128.2887368 151.84913606 122.11091042 158.01213741 C120.88602912 159.23775891 119.66136737 160.46359984 118.43690473 161.6896396 C115.06678298 165.06282773 111.69355043 168.43288997 108.31980895 171.80245725 C104.65186301 175.46696728 100.9868222 179.13438091 97.32141435 182.80142933 C90.895493 189.22942454 84.46771498 195.65555845 78.03872299 202.08048248 C68.47903619 211.63413717 58.92221493 221.19065447 49.36598282 230.74776464 C33.291225 246.82383681 17.21414311 262.89758243 1.13573074 278.96999931 C-14.78640438 294.88621141 -30.70750365 310.80345851 -46.62721634 326.72209358 C-47.36890281 327.46372844 -47.36890281 327.46372844 -48.12557285 328.22034582 C-52.64170026 332.73616002 -57.15781491 337.25198699 -61.67391426 341.76782925 C-72.90028805 352.99356365 -84.12682179 364.21913808 -95.35346413 375.44460392 C-95.86469302 375.95577949 -96.37592191 376.46695506 -96.90264258 376.99362081 C-121.76926531 401.85762219 -146.63773083 426.71978022 -171.50634766 451.58178711 C-180.13600301 460.2091508 -188.76565021 468.83652263 -197.39526367 477.46392822 C-197.93047525 477.99900285 -198.46568683 478.53407748 -199.01711694 479.08536649 C-223.89911403 503.96101915 -248.77980163 528.8379814 -273.66015166 553.71528142 C-275.2754611 555.33039279 -276.8907711 556.9455036 -278.50608122 558.5606143 C-289.21085113 569.26406442 -299.91559847 579.96753711 -310.6203307 590.67102492 C-331.91997638 611.96819411 -353.21975465 633.2652307 -374.51962401 654.56217618 C-375.53397263 655.57638556 -376.54832115 656.59059503 -377.56266958 657.60480459 C-438.1413434 718.17518289 -498.72274508 778.74283272 -580 860 C-583.25234474 858.91588509 -583.9217165 858.22803669 -586.0625 855.6875 C-586.67609375 854.96046875 -587.2896875 854.2334375 -587.921875 853.484375 C-588.60765625 852.66453125 -589.2934375 851.8446875 -590 851 C-591.15242188 849.67742187 -591.15242188 849.67742187 -592.328125 848.328125 C-598.92910924 840.64773453 -604.58184083 832.54822829 -610 824 C-610.61617187 823.04867187 -611.23234375 822.09734375 -611.8671875 821.1171875 C-624.11969554 801.29861458 -632.08410264 777.88961 -636 755 C-636.17805176 754.01612305 -636.35610352 753.03224609 -636.53955078 752.01855469 C-638.25742404 741.55779652 -638.39938827 731.20467835 -638.375 720.625 C-638.37412384 719.69658295 -638.37324768 718.76816589 -638.37234497 717.81161499 C-638.32699706 703.22826058 -637.63627048 689.19202092 -634 675 C-633.75330566 674.03658691 -633.50661133 673.07317383 -633.25244141 672.08056641 C-629.74055382 658.84146165 -625.0716704 646.27171826 -619 634 C-618.6685498 633.33000977 -618.33709961 632.66001953 -617.99560547 631.96972656 C-606.31010272 608.66722425 -589.87728079 589.70104386 -571.55716419 571.43411636 C-570.55157285 570.42778287 -569.54620111 569.4212299 -568.54102549 568.41448116 C-565.80306216 565.67348232 -563.06203386 562.93556734 -560.32045332 560.19818713 C-557.32909055 557.21028631 -554.34066152 554.21945348 -551.35184735 551.22900367 C-546.12161978 545.99671029 -540.88955103 540.76626378 -535.65625 535.53704453 C-527.8746153 527.76146227 -520.09586774 519.98299646 -512.31769687 512.20394941 C-499.23143696 499.11637764 -486.14285657 486.03112888 -473.05294228 472.94721222 C-460.0962837 459.99647498 -447.14066359 447.04470035 -434.18642235 434.0915451 C-432.97727581 432.88250168 -432.97727581 432.88250168 -431.74370208 431.64903313 C-427.64977979 427.55544919 -423.55587598 423.46184677 -419.46197929 419.36823723 C-390.48096648 390.38932363 -361.49763695 361.41272814 -332.51293945 332.4375 C-304.3584434 304.29219144 -276.20500022 276.14583038 -248.05297852 247.99804688 C-247.18488476 247.13008465 -246.31679101 246.26212242 -245.42239139 245.36785831 C-236.70446899 236.65125445 -227.98656795 227.93462923 -219.26868257 219.21798835 C-201.51007132 201.46191317 -183.75131749 183.7059806 -165.99247742 165.95013428 C-164.76775087 164.72561367 -164.76775087 164.72561367 -163.51828238 163.47635527 C-109.01457714 108.98184738 -54.50754855 54.49066361 0 0 Z " fill="#F8150B" transform="translate(2873,2688)"/>
<path d="M0 0 C1.81205846 -0.00390472 3.62411603 -0.00824289 5.43617249 -0.01298523 C9.20349111 -0.02037421 12.97071589 -0.02020955 16.73803711 -0.01489258 C21.50902854 -0.00909872 26.27963165 -0.02606328 31.05055904 -0.04923725 C34.7837591 -0.06413422 38.51686893 -0.06482503 42.25009346 -0.06172752 C44.0067376 -0.06223246 45.76338794 -0.06730964 47.52000237 -0.07753944 C63.38404734 -0.15864595 79.22737142 1.14799334 94.28515625 6.48828125 C95.58900269 6.93892944 95.58900269 6.93892944 96.91918945 7.39868164 C109.1633477 11.78150171 119.72233007 17.69542588 129.53515625 26.30078125 C130.26863281 26.89117188 131.00210938 27.4815625 131.7578125 28.08984375 C152.31024503 45.12625167 164.90667961 71.99554383 167.53515625 98.30078125 C169.73421545 134.16998502 162.66403895 164.15432363 138.47265625 191.64453125 C128.8018078 201.79892212 117.27236282 208.72255355 104.53515625 214.30078125 C103.87515625 214.30078125 103.21515625 214.30078125 102.53515625 214.30078125 C102.91099854 214.97729736 103.28684082 215.65381348 103.67407227 216.35083008 C104.20701904 217.31013428 104.73996582 218.26943848 105.2890625 219.2578125 C105.888396 220.33659668 106.48772949 221.41538086 107.10522461 222.52685547 C108.45376732 224.95422397 109.80222741 227.38163834 111.15063477 229.80908203 C114.53530122 235.90210212 117.92070103 241.99471041 121.30859375 248.0859375 C128.07591242 260.25557846 134.82218158 272.4364893 141.54412842 284.63122559 C146.38045005 293.40436046 151.23102251 302.16940908 156.09765625 310.92578125 C157.00801636 312.5641394 157.00801636 312.5641394 157.93676758 314.2355957 C160.829274 319.43934482 163.72444677 324.64158846 166.62495422 329.84088135 C167.99549941 332.29817834 169.36474694 334.75619718 170.7338562 337.21429443 C171.6924604 338.93410747 172.65296225 340.65286235 173.61352539 342.37158203 C174.19996826 343.42458496 174.78641113 344.47758789 175.390625 345.5625 C175.90262451 346.47990967 176.41462402 347.39731934 176.94213867 348.3425293 C178.88799765 351.95601179 180.71833579 355.62112054 182.53515625 359.30078125 C172.07817063 359.53265395 161.62179784 359.71024704 151.1627636 359.81890297 C146.30582664 359.87105897 141.45065013 359.94176975 136.59472656 360.05517578 C131.90669659 360.16397344 127.22035734 360.22364942 122.53116226 360.24955368 C120.74397274 360.26800788 118.95687421 360.30404947 117.17040634 360.35808182 C103.20329407 360.76365375 103.20329407 360.76365375 99.20065308 357.25354004 C97.60471211 354.65114953 96.54313144 352.17676128 95.53515625 349.30078125 C94.90376093 348.0786781 94.25310056 346.8661514 93.57568359 345.66894531 C93.01316895 344.56260742 92.4506543 343.45626953 91.87109375 342.31640625 C91.55734802 341.7028125 91.24360229 341.08921875 90.92034912 340.45703125 C90.25644502 339.15860622 89.59390264 337.85948408 88.93267822 336.55969238 C83.97341954 326.81642012 78.95781024 317.11531552 73.66015625 307.55078125 C68.00033118 297.31706209 62.6832876 286.91598243 57.36126709 276.50424194 C52.18791153 266.38830293 46.93806155 256.32904548 41.4140625 246.3984375 C37.92134828 240.10525873 34.76557281 233.76161436 31.53515625 227.30078125 C14.70515625 226.97078125 -2.12484375 226.64078125 -19.46484375 226.30078125 C-19.46484375 270.19078125 -19.46484375 314.08078125 -19.46484375 359.30078125 C-42.56484375 359.30078125 -65.66484375 359.30078125 -89.46484375 359.30078125 C-89.5089726 322.08522161 -89.54588635 284.86968673 -89.56697441 247.6541084 C-89.56947568 243.25589644 -89.57206434 238.85768453 -89.57470703 234.45947266 C-89.57523165 233.58390426 -89.57575627 232.70833586 -89.57629679 231.80623509 C-89.58498853 217.64752488 -89.6007517 203.48883099 -89.61914934 189.33013044 C-89.63788268 174.79132431 -89.64896773 160.2525267 -89.65302074 145.713709 C-89.65575868 136.74963661 -89.66439194 127.78561035 -89.68067668 118.82155217 C-89.69128599 112.66632368 -89.69443548 106.51111888 -89.6918465 100.35588191 C-89.69057133 96.80989935 -89.69246251 93.26399713 -89.7032547 89.71802902 C-89.71490823 85.86056417 -89.71078925 82.00320188 -89.70535278 78.14572144 C-89.71117847 77.04256242 -89.71700415 75.9394034 -89.72300637 74.80281532 C-89.64606487 54.47636104 -85.00633485 33.59659428 -70.73046875 18.3671875 C-51.33559375 0.67772392 -24.78003334 -0.02275492 0 0 Z " fill="#F7150B" transform="translate(2473.46484375,3886.69921875)"/>
<path d="M0 0 C22.11 0 44.22 0 67 0 C71.27376712 6.1053816 75.3783957 12.07194005 79.1875 18.4375 C82.97997614 24.70704389 86.82536024 30.9373042 90.75 37.125 C95.2959897 44.29693407 99.81466107 51.48526056 104.3125 58.6875 C105.25428101 60.19534058 105.25428101 60.19534058 106.21508789 61.73364258 C108.7894669 65.85625411 111.36297421 69.97940951 113.93652344 74.10253906 C120.27004008 84.24833937 126.60471132 94.39298665 133 104.5 C140.69898777 116.66735884 148.31257934 128.88808096 155.93652344 141.10253906 C162.27004008 151.24833937 168.60471132 161.39298665 175 171.5 C182.04714013 182.63718911 189.02139936 193.81978625 196 205 C198.77027152 209.43785117 201.54121095 213.87528414 204.3125 218.3125 C204.95292236 219.33883545 205.59334473 220.3651709 206.25317383 221.42260742 C206.84638428 222.37240479 207.43959473 223.32220215 208.05078125 224.30078125 C208.57325439 225.13778564 209.09572754 225.97479004 209.6340332 226.8371582 C210.73104098 228.57413621 211.86042941 230.29064412 213 232 C213.495 117.16 213.495 117.16 214 0 C237.1 0 260.2 0 284 0 C284.06613939 42.14164589 284.12153074 84.28324283 284.15319599 126.42492577 C284.1569481 131.40039006 284.16083107 136.37585424 284.16479492 141.35131836 C284.16558185 142.34184167 284.16636878 143.33236498 284.16717956 144.35290415 C284.18023267 160.39029333 284.20388601 176.42765025 284.23145839 192.46502029 C284.25951519 208.92143233 284.27617685 225.37782746 284.28226548 241.83426243 C284.28638135 251.98836077 284.29938001 262.1423679 284.3237494 272.29643817 C284.33960997 279.25992167 284.34439962 286.22335803 284.34050413 293.18685829 C284.33858309 297.20413941 284.34152341 301.22126117 284.35761642 305.23851395 C284.37225468 308.91956059 284.37292707 312.60034124 284.36269668 316.28140033 C284.36083631 318.23721449 284.37373981 320.19302569 284.38724393 322.14879411 C284.32612573 334.16551614 281.16893333 344.25018783 272.92578125 353.26953125 C264.95957919 360.76304419 258.0280093 363.61302371 247.08691406 363.47314453 C231.24200439 362.78729795 217.69771272 354.22304683 207 343 C200.90460907 335.8519511 196.09503827 328.01771143 191.35546875 319.94921875 C188.98668094 315.93844156 186.48152176 312.02636327 183.9375 308.125 C179.32196114 301.04118352 174.74302522 293.9350922 170.1875 286.8125 C169.50357178 285.74338379 168.81964355 284.67426758 168.11499023 283.57275391 C163.16035182 275.82350561 158.22032681 268.06503345 153.28540039 260.30322266 C146.21493976 249.18637201 139.10597834 238.09416618 132 227 C123.74590736 214.11334724 115.49864311 201.22261592 107.28857422 188.30786133 C102.87219597 181.36346571 98.43859454 174.43021291 94 167.5 C88.68038777 159.1920307 83.3648861 150.88147675 78.0625 142.5625 C77.46501953 141.62664063 76.86753906 140.69078125 76.25195312 139.7265625 C75.70603516 138.86933594 75.16011719 138.01210937 74.59765625 137.12890625 C74.11820557 136.37681885 73.63875488 135.62473145 73.14477539 134.84985352 C72 133 72 133 71 131 C70.67 206.24 70.34 281.48 70 359 C46.9 359 23.8 359 0 359 C0 240.53 0 122.06 0 0 Z " fill="#F8150B" transform="translate(3257,3887)"/>
<path d="M0 0 C168.16531074 0 168.16531074 0 186.625 6.75 C187.62152588 7.09925537 188.61805176 7.44851074 189.64477539 7.80834961 C200.95160465 11.88360582 210.8357216 17.15195548 220 25 C220.81082031 25.66644531 221.62164063 26.33289062 222.45703125 27.01953125 C242.19264698 43.84482577 251.79147317 67.97632697 256 93 C256.17273437 94.02633545 256.34546875 95.0526709 256.5234375 96.11010742 C257.08028228 100.65529587 257.18077622 105.10150956 257.203125 109.67578125 C257.20882507 110.59981247 257.21452515 111.52384369 257.22039795 112.47587585 C257.22981245 114.42995067 257.23636775 116.3840411 257.24023438 118.33813477 C257.24984548 121.26543643 257.28086332 124.19200617 257.3125 127.11914062 C257.40275764 142.83412792 256.0340595 157.82959194 250.75 172.75 C250.44553955 173.62849609 250.1410791 174.50699219 249.82739258 175.41210938 C240.47087842 201.71150052 223.14216583 221.28655934 197.8515625 233.37109375 C193.56705931 235.24430276 189.19245668 236.79609679 184.75 238.25 C184.0492334 238.48420654 183.3484668 238.71841309 182.62646484 238.9597168 C167.37336062 243.67078077 152.04200587 244.4326309 136.2109375 244.29296875 C134.501712 244.2885407 132.79248237 244.28549081 131.08325195 244.28381348 C124.84710467 244.26828397 118.61104528 244.22640213 112.375 244.1875 C98.39125 244.125625 84.4075 244.06375 70 244 C70 281.95 70 319.9 70 359 C46.9 359 23.8 359 0 359 C0 240.53 0 122.06 0 0 Z " fill="#F8150B" transform="translate(1763,3887)"/>
<path d="M0 0 C23.1 0 46.2 0 70 0 C70.33 65.34 70.66 130.68 71 198 C80.7476371 184.22124474 80.7476371 184.22124474 90.1875 170.25 C91.55622007 168.18548708 92.92609262 166.12173793 94.296875 164.05859375 C94.84449745 163.23436165 94.84449745 163.23436165 95.40318298 162.39347839 C100.53996901 154.67205041 105.74189379 146.99440644 110.9375 139.3125 C111.46789886 138.52814575 111.99829773 137.7437915 112.54476929 136.93566895 C115.27274456 132.90164692 118.00121768 128.86796201 120.72998047 124.83447266 C125.47202262 117.8245356 130.20945497 110.81148438 134.94711304 103.79858398 C137.54525357 99.9528152 140.14374839 96.1072858 142.7421875 92.26171875 C146.4078646 86.83658686 150.07334009 81.41131885 153.73857117 75.98588562 C155.84447758 72.86864193 157.95044201 69.75143744 160.056427 66.63424683 C161.09768187 65.09301784 162.13892142 63.55177851 163.18014526 62.01052856 C168.91766308 53.51786213 174.65748234 45.02676343 180.40234375 36.5390625 C180.92344727 35.76908432 181.44455078 34.99910614 181.98144531 34.20579529 C184.45079499 30.55715982 186.92054506 26.90879681 189.39111328 23.26098633 C190.28289373 21.94353305 191.17465885 20.6260694 192.06640625 19.30859375 C192.44876938 18.74439728 192.83113251 18.18020081 193.2250824 17.59890747 C193.6052803 17.03702728 193.98547821 16.47514709 194.37719727 15.89624023 C194.7897879 15.31464142 195.20237854 14.7330426 195.62747192 14.13381958 C197.12345825 11.89799139 197.12345825 11.89799139 198.5138855 8.91574097 C202.98195774 0.61038586 202.98195774 0.61038586 208.45191956 -1.04408264 C212.79069246 -1.39152634 216.97098634 -1.35335734 221.3125 -1.171875 C222.89283779 -1.14946268 224.47325959 -1.13239563 226.05371094 -1.12042236 C230.19226703 -1.07483333 234.32568084 -0.95720161 238.46221924 -0.82397461 C242.69155293 -0.70069236 246.92172709 -0.64630267 251.15234375 -0.5859375 C259.43724305 -0.45765245 267.71798012 -0.25316803 276 0 C274.89642552 1.73822844 273.79231685 3.47611774 272.68798828 5.21386719 C272.07319611 6.18169128 271.45840393 7.14951538 270.82498169 8.14666748 C268.22355276 12.21396405 265.55844071 16.23650251 262.875 20.25 C261.99654419 21.5656897 261.99654419 21.5656897 261.1003418 22.90795898 C252.56244484 35.6716727 243.92922296 48.37134991 235.30523682 61.07696533 C233.65224801 63.51235081 231.99959114 65.94796144 230.34693909 68.38357544 C227.61849611 72.40464322 224.88989949 76.42560664 222.16088867 80.44628906 C215.43499269 90.3560685 208.71645173 100.2708216 202.00073242 110.1875 C201.12158344 111.48567804 200.24243305 112.78385512 199.36328125 114.08203125 C198.92616318 114.72749908 198.4890451 115.37296692 198.03868103 116.03799438 C195.28453263 120.10451418 192.52896719 124.17006997 189.77233887 128.23490906 C187.90130498 130.99392641 186.03069186 133.75322892 184.16009521 136.51254272 C183.28273762 137.80648524 182.40518423 139.10029503 181.52740479 140.39395142 C181.11504578 141.00169403 180.70268677 141.60943665 180.27783203 142.2355957 C179.66736023 143.13493584 179.66736023 143.13493584 179.04455566 144.05244446 C178.24340927 145.23600658 177.44477497 146.42127345 176.64880371 147.60832214 C174.51046761 150.79515527 172.33247288 153.94412784 170.09521484 157.0625 C169.6217009 157.73623657 169.14818695 158.40997314 168.6603241 159.10412598 C167.74829044 160.40156423 166.82216358 161.68924284 165.88032532 162.96520996 C164.46238095 164.91865551 164.46238095 164.91865551 163 168 C163.47829854 170.77119633 163.47829854 170.77119633 165 173 C165.5775 174.00289062 166.155 175.00578125 166.75 176.0390625 C167.4945819 177.23775753 168.24506389 178.43279891 169 179.625 C169.42152344 180.29595703 169.84304687 180.96691406 170.27734375 181.65820312 C175.11645467 189.29220221 180.17056613 196.78517172 185.20162964 204.29324341 C189.97284772 211.41526408 194.67915523 218.56148999 199.1706543 225.86425781 C203.10442123 232.23329282 207.20836019 238.48989014 211.3125 244.75 C211.68073883 245.3117392 212.04897766 245.87347839 212.42837524 246.45223999 C214.26315649 249.2506848 216.09852671 252.04874251 217.93408203 254.84667969 C220.88377576 259.34895388 223.81876628 263.86069267 226.75 268.375 C227.27053955 269.17647461 227.7910791 269.97794922 228.32739258 270.80371094 C229.3648522 272.40129829 230.40220668 273.99895392 231.43945312 275.59667969 C234.12473048 279.73214125 236.81251919 283.86597019 239.5 288 C240.58334477 289.66665923 241.66667812 291.33332589 242.75 293 C243.28625 293.825 243.8225 294.65 244.375 295.5 C250.33333333 304.66666667 256.29166667 313.83333333 262.25 323 C262.78729736 323.82653076 263.32459473 324.65306152 263.87817383 325.50463867 C264.95122581 327.15564941 266.02398432 328.80685092 267.09643555 330.45825195 C269.9595782 334.86613967 272.82913224 339.26969859 275.70703125 343.66796875 C276.3103125 344.59158203 276.91359375 345.51519531 277.53515625 346.46679688 C278.70127746 348.25185934 279.86918706 350.03575506 281.0390625 351.81835938 C281.55855469 352.61435547 282.07804687 353.41035156 282.61328125 354.23046875 C283.07516846 354.93582764 283.53705566 355.64118652 284.01293945 356.36791992 C285 358 285 358 285 359 C274.57038163 359.55920224 264.14438386 359.98394965 253.70276546 360.24349213 C248.8516748 360.36817166 244.0109106 360.53664872 239.16577148 360.81054688 C207.97964156 362.52773078 207.97964156 362.52773078 199.83843994 356.76025391 C194.8218622 351.26122262 191.95211289 345.09481711 189.33474731 338.19262695 C187.05117555 332.73047492 183.74252689 327.93107605 180.5 323 C179.24545616 321.00284709 177.99491622 319.00316839 176.75 317 C175.821875 315.515 175.821875 315.515 174.875 314 C154.25 281 154.25 281 152.37353516 277.99755859 C151.1285351 276.0056234 149.88341867 274.01376094 148.63818359 272.02197266 C145.43570668 266.89918358 142.23550911 261.77499179 139.0390625 256.6484375 C132.42977869 246.0526405 125.80344942 235.47251834 119 225 C114.96301677 228.69403562 111.9404766 233.02544452 108.75 237.4375 C103.00447247 245.3132549 97.15568626 253.10021508 91.20996094 260.82592773 C89.9237424 262.50317998 88.66390748 264.20084086 87.42431641 265.9128418 C85.50743911 268.35381999 83.61318775 270.41613261 81.43115234 272.59692383 C67.18299286 287.81187329 69.20763065 305.08767469 69.625 324.6875 C69.74875 336.010625 69.8725 347.33375 70 359 C46.9 359 23.8 359 0 359 C0 240.53 0 122.06 0 0 Z " fill="#F8150B" transform="translate(3614,3887)"/>
<path d="M0 0 C3.24989977 2.88603628 6.34010977 5.91340497 9.390625 9.0078125 C10.13828125 9.74515625 10.8859375 10.4825 11.65625 11.2421875 C27.81720307 28.16665016 34.75985163 51.01427825 34.390625 74.0078125 C13.39289353 75.66705353 -7.55528421 76.53260318 -28.609375 77.0078125 C-28.8662207 76.13680908 -29.12306641 75.26580566 -29.38769531 74.3684082 C-29.73413086 73.21429443 -30.08056641 72.06018066 -30.4375 70.87109375 C-30.7768457 69.73196533 -31.11619141 68.59283691 -31.46582031 67.41918945 C-35.52673513 55.30493611 -43.11148024 45.75675988 -54.609375 40.0078125 C-74.14409153 31.22025193 -98.88956491 31.81509615 -119.15625 38.109375 C-125.5218771 40.61361916 -131.12713464 43.93999016 -136.609375 48.0078125 C-138.15625 49.090625 -138.15625 49.090625 -139.734375 50.1953125 C-146.1772365 55.73833301 -151.07687656 64.62058802 -151.91015625 73.05078125 C-151.95336892 84.64618188 -150.19768015 93.62117805 -142.421875 102.5078125 C-127.46226329 115.80524513 -110.27796628 117.56902061 -91.15490723 119.69656372 C-88.86562466 119.95157851 -86.57681772 120.21055002 -84.28808594 120.47045898 C-77.21846454 121.2720702 -70.14757649 122.06008966 -63.07421875 122.828125 C-31.28449748 126.30861953 1.57394136 133.3489194 23.390625 159.0078125 C39.14799537 179.13002937 44.56276045 200.76735043 44.63085938 226.07177734 C44.64054387 228.23965152 44.67164559 230.40656658 44.703125 232.57421875 C44.77070918 241.45510912 43.85335044 249.41024855 41.390625 258.0078125 C41.19710449 258.72984863 41.00358398 259.45188477 40.80419922 260.19580078 C33.48563874 286.57153473 14.92085932 305.82026084 -8.50878906 319.08300781 C-44.98252341 339.16488595 -91.71842637 342.93066276 -131.58251953 331.64916992 C-141.93850274 328.53521055 -151.90911751 324.78306376 -161.609375 320.0078125 C-162.68058594 319.48550049 -162.68058594 319.48550049 -163.7734375 318.95263672 C-172.86231478 314.47351449 -180.97056611 309.74451444 -188.609375 303.0078125 C-189.48529297 302.34458984 -189.48529297 302.34458984 -190.37890625 301.66796875 C-209.1121371 287.23416793 -220.42921117 261.18132479 -224.046875 238.4453125 C-224.81968959 232.31974004 -224.66018545 226.17093235 -224.609375 220.0078125 C-203.28093136 218.59795579 -181.97774443 217.56050085 -160.609375 217.0078125 C-160.49722656 218.53148438 -160.49722656 218.53148438 -160.3828125 220.0859375 C-159.11753088 234.31471491 -154.49834774 245.28437497 -143.609375 255.0078125 C-120.67629874 272.47658787 -92.857719 275.71016745 -64.80371094 272.70751953 C-55.79113965 271.24274345 -47.40067844 267.71605415 -39.609375 263.0078125 C-38.93390625 262.60304687 -38.2584375 262.19828125 -37.5625 261.78125 C-30.84226916 256.93435785 -26.47111225 247.45597065 -24.93359375 239.51953125 C-23.73684091 226.55711191 -23.99148009 214.48903604 -32.609375 204.0078125 C-38.75900762 197.42547652 -45.15516701 193.95138289 -53.609375 191.0078125 C-54.52460937 190.66105469 -55.43984375 190.31429687 -56.3828125 189.95703125 C-60.57791816 188.72287789 -64.71078445 188.20458488 -69.046875 187.6953125 C-70.53719238 187.51137939 -70.53719238 187.51137939 -72.05761719 187.32373047 C-78.67377855 186.52852797 -85.29603821 185.83082869 -91.92738342 185.17652893 C-96.03547379 184.77087146 -100.1425659 184.35543 -104.24978638 183.94107056 C-107.28330924 183.64035301 -110.31809409 183.35644492 -113.35327148 183.07299805 C-141.63984308 180.30574749 -170.18866197 172.6298397 -191.609375 153.0078125 C-192.92228516 151.81671875 -192.92228516 151.81671875 -194.26171875 150.6015625 C-211.13503125 134.56557227 -219.12065261 111.98413428 -219.9002533 89.0243988 C-219.96131606 86.25982519 -219.98062444 83.49665507 -219.97998047 80.73144531 C-219.98435901 78.64044896 -220.02087625 76.55156484 -220.05859375 74.4609375 C-220.16809982 61.46482143 -217.75304171 48.97862252 -211.921875 37.2578125 C-211.4103186 36.20388306 -211.4103186 36.20388306 -210.88842773 35.12866211 C-207.53782283 28.46318601 -203.41361825 22.72477899 -198.609375 17.0078125 C-197.59810547 15.75291016 -197.59810547 15.75291016 -196.56640625 14.47265625 C-174.91803236 -11.15609407 -141.31200296 -24.52347851 -108.55810547 -27.76513672 C-71.51198025 -30.61766996 -29.24411381 -24.92651413 0 0 Z " fill="#F7150B" transform="translate(1325.609375,3911.9921875)"/>
<path d="M0 0 C23.1 0 46.2 0 70 0 C70.01458252 7.3839917 70.02916504 14.7679834 70.04418945 22.37573242 C70.09300599 46.03485937 70.15643143 69.69392418 70.22898628 93.35298921 C70.24025368 97.03146838 70.25139225 100.70994793 70.26245117 104.38842773 C70.26465486 105.12070893 70.26685854 105.85299013 70.269129 106.60746167 C70.30444644 118.44534478 70.32934186 130.28322784 70.35034702 142.12114402 C70.37215342 154.27905219 70.40524953 166.43689234 70.44870156 178.5947426 C70.47513517 186.08936332 70.49289147 193.58389938 70.49934604 201.07856438 C70.5052519 206.83739323 70.52690865 212.59608216 70.55427551 218.35484505 C70.56303567 220.70854227 70.56678253 223.06226462 70.56500816 225.41597748 C70.55505069 244.72742488 71.59274603 263.73431478 85 279 C85.75023437 279.88945312 85.75023437 279.88945312 86.515625 280.796875 C97.32163165 292.65200851 112.79894055 297.69881561 128.38671875 298.48046875 C142.41930119 298.94362152 155.9571623 298.70352725 169 293 C170.17175781 292.49210937 171.34351563 291.98421875 172.55078125 291.4609375 C185.25329683 285.27816752 194.43746284 275.64382368 199.0690918 262.33862305 C201.86885428 254.00759801 203.14918295 246.76309163 203.15821838 237.98368835 C203.16315636 236.96669524 203.16809434 235.94970214 203.17318195 234.90189105 C203.18855426 231.49017836 203.1969169 228.07848449 203.20532227 224.66674805 C203.21490099 222.22269017 203.22491107 219.77863395 203.23532104 217.33457947 C203.2567698 212.07064551 203.27521397 206.80671412 203.29092598 201.54276085 C203.31364804 193.93198954 203.34178762 186.32124582 203.37124526 178.71049795 C203.41889254 166.36226799 203.46216447 154.01402673 203.50268555 141.66577148 C203.54205505 129.6712964 203.58348476 117.67683134 203.62768555 105.68237305 C203.63177196 104.57318112 203.63177196 104.57318112 203.63594092 103.44158127 C203.64962064 99.73188465 203.66334086 96.02218817 203.67708123 92.31249177 C203.79100101 61.54168096 203.89701436 30.77084991 204 0 C227.1 0 250.2 0 274 0 C274.06623593 31.7035747 274.12159 63.4070822 274.15319599 95.11070457 C274.15694775 98.86042426 274.16083075 102.61014381 274.16479492 106.35986328 C274.16558185 107.10631062 274.16636878 107.85275796 274.16717956 108.62182492 C274.18020496 120.68081045 274.20384287 132.73975273 274.23145839 144.79871267 C274.2595926 157.18824319 274.27619314 169.57775118 274.28226548 181.96731234 C274.28636537 189.60169228 274.29927641 197.23594992 274.3237494 204.87029219 C274.34160211 210.74137762 274.34334553 216.61240154 274.33932304 222.48351479 C274.34014361 224.87951214 274.34604685 227.27551443 274.35761642 229.67148399 C274.4165519 242.51413675 273.98145703 254.47509266 271 267 C270.78750201 268.04045723 270.57500402 269.08091446 270.3560667 270.1529007 C264.2048225 300.25011725 243.76043476 323.88538063 218.7824707 340.45092773 C212.1623809 344.68943581 205.22901142 347.94548813 198 351 C196.94425781 351.46148437 195.88851563 351.92296875 194.80078125 352.3984375 C176.53261545 359.96242083 156.32334631 362.43861346 136.6875 362.4375 C135.95309692 362.43923218 135.21869385 362.44096436 134.46203613 362.44274902 C120.51482243 362.42842253 107.52023296 360.47335638 94 357 C92.69880144 356.70569589 91.39681815 356.41481881 90.09375 356.12890625 C60.90937556 349.00328212 32.73427692 328.43331117 16.74951172 303.01123047 C1.90594688 278.15730308 -0.48007797 252.17967117 -0.34057617 223.75854492 C-0.33972771 221.30227672 -0.3402093 218.84600776 -0.34190369 216.38973999 C-0.34258097 211.14841029 -0.33422093 205.90718265 -0.31719017 200.66588402 C-0.29258431 193.0882905 -0.28497312 185.51075084 -0.2812262 177.93312172 C-0.27469511 165.63254815 -0.25482584 153.332035 -0.22631836 141.03149414 C-0.19869045 129.09790342 -0.17749989 117.16432923 -0.16479492 105.23071289 C-0.16400675 104.49246819 -0.16321858 103.75422348 -0.16240653 102.99360772 C-0.1584908 99.28925741 -0.15469983 95.58490697 -0.15097082 91.88055646 C-0.11997927 61.25365145 -0.06473338 30.62685761 0 0 Z " fill="#F7150B" transform="translate(1416,3887)"/>
<path d="M0 0 C78.21 0 156.42 0 237 0 C237 20.79 237 41.58 237 63 C181.89 63 126.78 63 70 63 C70 90.72 70 118.44 70 147 C108.61 147 147.22 147 187 147 C183 201 183 201 182 209 C145.04 209 108.08 209 70 209 C67.15352452 243.77950105 67.15352452 243.77950105 78 286 C88.81159078 295.20223185 100.87018746 295.14270643 114.39257812 295.20532227 C115.73364553 295.21491717 117.07471002 295.22492815 118.41577148 295.23532104 C122.03499822 295.26220171 125.65423777 295.28330168 129.27350807 295.30332303 C133.0638318 295.32528729 136.85411679 295.35262459 140.64440918 295.37937927 C147.81231328 295.42916571 154.98023903 295.47415627 162.14818525 295.51740164 C171.840987 295.57615906 181.53373769 295.64236989 191.22649384 295.70815182 C206.48429475 295.81150656 221.74213992 295.90494175 237 296 C237 316.79 237 337.58 237 359 C217.99679724 359.045293 198.99363874 359.08207381 179.99039555 359.10362434 C171.16520811 359.1139003 162.34005681 359.12788952 153.51489258 359.15087891 C145.81538871 359.17092627 138.11591103 359.18374312 130.41638178 359.18817699 C126.34635735 359.19076533 122.27640778 359.19677055 118.20640755 359.21146011 C85.7253212 359.3241622 85.7253212 359.3241622 72 357 C70.55161743 356.76848236 70.55161743 356.76848236 69.07397461 356.5322876 C66.8253465 356.15958777 64.60358513 355.72724472 62.375 355.25 C61.59068604 355.08226074 60.80637207 354.91452148 59.99829102 354.74169922 C41.12328958 350.45966645 23.74139438 341.51945002 13.17700195 324.83129883 C2.29514122 306.41380374 -0.17919901 283.37999613 -0.12025452 262.39535522 C-0.12110894 261.26791763 -0.12196337 260.14048003 -0.12284368 258.97887766 C-0.12448304 255.22336942 -0.1190025 251.46790643 -0.11352539 247.71240234 C-0.11324316 245.01145325 -0.11335799 242.31050687 -0.1139679 239.60955811 C-0.11449067 233.80603955 -0.11136963 228.00253229 -0.10573006 222.19901657 C-0.09758165 213.80824529 -0.09499642 205.41747943 -0.09374207 197.02670462 C-0.09155679 183.41119192 -0.08491093 169.79568523 -0.07543945 156.18017578 C-0.06625177 142.95882191 -0.05918905 129.73746969 -0.05493164 116.51611328 C-0.05466364 115.69199743 -0.05439565 114.86788157 -0.05411953 114.01879251 C-0.05203994 107.57307342 -0.05008307 101.12735429 -0.04816496 94.68163514 C-0.03874182 63.12108458 -0.01862101 31.56054907 0 0 Z " fill="#F7150B" transform="translate(2079,3887)"/>
<path d="M0 0 C23.1 0 46.2 0 70 0 C70.00410889 8.14131592 70.00821777 16.28263184 70.01245117 24.6706543 C70.02912541 50.74966867 70.07031925 76.82858935 70.12685562 102.90754597 C70.13562188 106.96155695 70.14417178 111.01556836 70.15258789 115.06958008 C70.15426695 115.87662665 70.15594602 116.68367321 70.15767596 117.51517574 C70.18431189 130.56555007 70.19343859 143.61588049 70.19604143 156.66627922 C70.19910592 170.06722029 70.22110987 183.4680348 70.26052457 196.86891872 C70.28423422 205.13133718 70.29334776 213.39350266 70.28351311 221.6559504 C70.2781782 227.3295621 70.29131728 233.00294808 70.3186629 238.67649551 C70.33388127 241.94505295 70.33851348 245.21300596 70.32659721 248.48159218 C69.90322561 268.91844418 69.90322561 268.91844418 78.3125 287.0625 C88.0057739 294.05067421 97.58421906 295.29648256 109.29101562 295.31884766 C110.50162659 295.32889328 111.71223755 295.3389389 112.95953369 295.34928894 C116.25648367 295.37476521 119.55334063 295.39169044 122.85035896 295.40471697 C126.30438174 295.42041803 129.75831894 295.44718575 133.21228027 295.4727478 C139.74268585 295.51941273 146.27310774 295.55621601 152.80359411 295.58942068 C160.97328863 295.63149191 169.14288659 295.68682583 177.3125 295.7421875 C191.87494684 295.8408122 206.43741688 295.91947349 221 296 C221 316.79 221 337.58 221 359 C190.52470095 359.08032734 190.52470095 359.08032734 175.34995174 359.10050774 C167.17964762 359.11154242 159.00938484 359.12549766 150.83911133 359.15087891 C144.36500748 359.17098114 137.89093499 359.18375579 131.4168008 359.18817699 C127.99728145 359.19075628 124.5778517 359.19670113 121.15836143 359.21146011 C102.73580504 359.28208374 84.3047998 359.30778631 66.3125 354.8125 C65.44512207 354.59964355 64.57774414 354.38678711 63.68408203 354.16748047 C42.96102516 348.80866021 23.88605665 337.97367959 12.625 319.3125 C9.89231347 314.30303873 7.67382516 309.09534956 5.6875 303.75 C5.45691895 303.14454346 5.22633789 302.53908691 4.98876953 301.9152832 C-0.83488681 284.99415977 -0.41780838 267.17095633 -0.34057617 249.52880859 C-0.33804852 246.79712172 -0.3400764 244.06544247 -0.34190369 241.33375549 C-0.34346514 235.48832404 -0.33417527 229.64299424 -0.31719017 223.79758835 C-0.2926498 215.34647287 -0.28497966 206.89540577 -0.2812262 198.44425853 C-0.27468509 184.72778523 -0.25478799 171.01136592 -0.22631836 157.29492188 C-0.19871683 143.98275011 -0.17751321 130.6705931 -0.16479492 117.35839844 C-0.16400675 116.53572969 -0.16321858 115.71306093 -0.16240653 114.86546282 C-0.15849098 110.7377466 -0.15469996 106.61003027 -0.15097082 102.48231387 C-0.1199479 68.32149471 -0.06468462 34.16077612 0 0 Z " fill="#F7150B" transform="translate(2831,3887)"/>
<path d="M0 0 C23.1 0 46.2 0 70 0 C70 118.47 70 236.94 70 359 C46.9 359 23.8 359 0 359 C0 240.53 0 122.06 0 0 Z " fill="#F8150B" transform="translate(3108,3887)"/>
<path d="M0 0 C12.560625 -0.103125 25.12125 -0.20625 38.0625 -0.3125 C41.99808838 -0.35802002 45.93367676 -0.40354004 49.98852539 -0.45043945 C54.87194824 -0.47302246 54.87194824 -0.47302246 57.17308044 -0.47721863 C58.74749361 -0.48479269 60.32188164 -0.5021567 61.89610291 -0.52787781 C76.20317424 -0.749529 90.03444624 0.76548315 101 11 C101.61230469 11.52335937 102.22460938 12.04671875 102.85546875 12.5859375 C111.69475057 20.61479476 115.5445023 32.42868088 117 44 C117.21017033 48.74878972 117.18509705 53.49696599 117.1875 58.25 C117.19974609 59.50941406 117.21199219 60.76882812 117.22460938 62.06640625 C117.24973027 78.19402011 114.4533346 93.69482646 103.22265625 105.9375 C90.23963681 118.25676589 73.49846654 118.31055816 56.640625 118.1953125 C55.18343255 118.19236354 53.72623797 118.19032837 52.26904297 118.18920898 C46.92932919 118.17882044 41.58966108 118.15089843 36.25 118.125 C24.2875 118.08375 12.325 118.0425 0 118 C0 79.06 0 40.12 0 0 Z " fill="#000000" transform="translate(1833,3950)"/>
<path d="M0 0 C1.76301453 0.002062 1.76301453 0.002062 3.56164551 0.00416565 C6.02898329 0.01316657 8.49630743 0.03662414 10.96337891 0.07397461 C14.7092835 0.12876778 18.45295467 0.13550221 22.19921875 0.13476562 C24.61199811 0.14951555 27.02476262 0.16700244 29.4375 0.1875 C31.09271667 0.19250771 31.09271667 0.19250771 32.78137207 0.19761658 C48.09283673 0.47369185 59.76311712 4.7583814 70.92578125 15.24609375 C74.49528453 19.05275312 76.98087649 22.99187189 79.21875 27.69140625 C79.63125 28.53703125 80.04375 29.38265625 80.46875 30.25390625 C86.0907561 43.99658784 84.7093307 61.84713158 79.1171875 75.3515625 C73.11543808 88.18756207 64.19006795 96.82780351 51.25 102.68359375 C41.41932952 105.95203832 31.73027563 105.95751519 21.4921875 105.88671875 C19.8922239 105.88298128 18.29225798 105.88013778 16.69229126 105.87814331 C12.51334132 105.87056459 8.33453389 105.85096671 4.15563965 105.82873535 C-0.12148105 105.8081517 -4.39862513 105.79911501 -8.67578125 105.7890625 C-17.0443357 105.76771446 -25.41277504 105.7336495 -33.78125 105.69140625 C-33.85097357 95.30306847 -33.90417438 84.91478701 -33.93668652 74.52626228 C-33.95229617 69.70166848 -33.97344796 64.87723559 -34.00756836 60.05273438 C-34.04033023 55.39078072 -34.05813831 50.72898119 -34.06588173 46.06692123 C-34.07139517 44.29444836 -34.08216111 42.52198326 -34.09844017 40.74957657 C-34.30164254 17.69419289 -34.30164254 17.69419289 -26.74914551 8.50022888 C-19.03889452 1.41322837 -10.0981215 -0.19726782 0 0 Z " fill="#020000" transform="translate(2487.78125,3949.30859375)"/>
</svg>
